<svg width="214" height="120" viewBox="0 0 214 120" fill="none" xmlns="http://www.w3.org/2000/svg">
<path d="M210.667 59.9945C210.667 91.6555 164.104 117.322 106.667 117.322C49.2294 117.322 2.66669 91.6555 2.66669 59.9945C2.66669 28.3335 49.2294 2.66665 106.667 2.66665C164.104 2.66665 210.667 28.3335 210.667 59.9945Z" stroke="#FF5C00" stroke-width="5.33333" stroke-miterlimit="10"/>
<path d="M28.8777 34.2228C33.1912 30.9731 36.181 29.2346 40.6652 26.9424C28.2636 43.84 24.417 59.1857 31.7661 79.138C38.3884 80.804 45.0794 81.9813 51.8055 83.1312C53.2675 88.8724 55.4425 94.7825 58.0429 100.105C47.4856 96.4249 38.1794 92.0329 28.8777 85.7661C9.12439 68.3155 9.2225 51.5868 28.8777 34.2228Z" fill="#FF5C00"/>
<path d="M94.0467 69.4348C93.9308 57.96 94.0888 46.5214 94.515 35.0548C81.2673 40.7254 74.3157 55.2658 73.6997 69.0609C80.4812 69.2507 87.2633 69.3476 94.0467 69.4348ZM102.781 12.8543C106.208 12.7823 107.953 12.7861 111.373 12.8734C112.409 44.2949 112.409 75.694 111.374 107.116C105.187 107.274 102.01 107.221 95.9044 106.859C95.354 100.311 95.1221 96.9167 94.7602 90.0319C88.2826 89.8344 81.7668 89.4286 75.3153 88.8087C76.2887 95.4081 76.9111 98.6597 78.391 104.922C72.6077 103.971 69.7894 103.371 64.3718 101.941C61.1196 93.588 59.1575 85.0946 57.5897 76.2967C53.7164 50.4559 75.3892 16.0211 102.781 12.8543Z" fill="#FF5C00"/>
<path d="M122.155 13.4733C124.035 13.6358 124.969 13.7288 126.824 13.9403C142.574 17.3665 156.648 31.1341 164.025 45.0452C165.874 38.2394 170.562 21.3641 180.864 31.6922C182.367 32.6835 183.086 33.1906 184.456 34.2226C204.111 51.5866 204.209 68.3153 184.456 85.7659C180.142 89.0156 177.153 90.7542 172.67 93.0457C183.935 77.6357 188.181 64.4745 183.512 45.7236C174.646 49.2766 173.1 63.7253 171.861 71.7249C169.695 81.1644 166.636 89.1723 162.101 97.7294C157.229 99.5928 154.666 100.417 149.356 101.836C152.927 92.5851 155.554 82.8443 156.647 72.9685C158.251 60.3214 152.578 47.3915 141.444 40.8749C143.269 62.5684 141.792 83.3667 136.887 104.59C131.148 105.607 128.187 105.995 122.155 106.516C125.61 75.4231 125.61 44.5642 122.155 13.4733Z" fill="#FF5C00"/>
</svg>
